<svg xmlns="http://www.w3.org/2000/svg"  viewBox="0 0 64 64" width="64px" height="64px" baseProfile="basic"><circle cx="32" cy="32" r="23" fill="#98c900"/><ellipse cx="32" cy="61" opacity=".3" rx="19" ry="3"/><path fill="#fff" d="M32,14c2.577,0,4.674-1.957,4.946-4.461C35.352,9.19,33.699,9,32,9 C19.297,9,9,19.297,9,32c0,1.699,0.19,3.352,0.539,4.946C12.044,36.674,14,34.577,14,32C14,22.075,22.075,14,32,14z" opacity=".3"/><path fill="none" stroke="#fff" stroke-linecap="round" stroke-linejoin="round" stroke-miterlimit="10" stroke-width="3" d="M15.047,23.427c1.878-3.699,4.932-6.705,8.666-8.522"/><path d="M54.461,27.054C51.956,27.326,50,29.423,50,32c0,9.925-8.075,18-18,18 c-2.577,0-4.674,1.957-4.946,4.461C28.648,54.81,30.301,55,32,55c12.703,0,23-10.297,23-23C55,30.301,54.81,28.648,54.461,27.054z" opacity=".15"/><path fill="#548500" d="M41.065,42.911c-0.322,0-0.645-0.16-0.968-0.322c-3.064-1.774-6.775-2.741-10.806-2.741	c-2.259,0-4.517,0.321-6.614,0.805c-0.322,0-0.807,0.162-0.968,0.162c-0.807,0-1.29-0.646-1.29-1.291	c0-0.806,0.483-1.292,1.129-1.451c2.581-0.646,5.161-0.968,7.903-0.968c4.517,0,8.71,1.127,12.259,3.227	c0.484,0.321,0.807,0.644,0.807,1.45C42.356,42.429,41.71,42.911,41.065,42.911z M43.323,37.426c-0.483,0-0.805-0.159-1.129-0.321	c-3.386-2.097-8.065-3.389-13.387-3.389c-2.582,0-5.001,0.323-6.775,0.809c-0.485,0.159-0.645,0.159-0.968,0.159	c-0.968,0-1.613-0.805-1.613-1.612c0-0.968,0.485-1.452,1.29-1.774c2.419-0.644,4.839-1.129,8.226-1.129	c5.485,0,10.807,1.292,15.001,3.871c0.644,0.321,0.968,0.968,0.968,1.612C44.937,36.621,44.291,37.426,43.323,37.426z M45.905,30.977c-0.484,0-0.645-0.161-1.129-0.321c-3.871-2.259-9.677-3.55-15.323-3.55c-2.904,0-5.807,0.323-8.387,0.968	c-0.323,0-0.645,0.161-1.129,0.161C18.807,28.395,18,27.429,18,26.298c0-1.129,0.645-1.774,1.451-1.935	c3.064-0.968,6.29-1.291,10-1.291c6.13,0,12.581,1.291,17.42,4.032C47.516,27.428,48,28.072,48,29.041	C47.84,30.169,47.032,30.977,45.905,30.977z"/></svg>